<svg id="Layer_1" data-name="Layer 1" xmlns="http://www.w3.org/2000/svg" viewBox="0 0 32 50"><defs><style>.cls-1{fill:#c5050c;}</style></defs><title>red-UWcrest-web</title><path class="cls-1" d="M31.48,18a27.94,27.94,0,0,0-.49-3.1,22.47,22.47,0,0,0-.79-2.78A17.66,17.66,0,0,0,29,9.38a12.78,12.78,0,0,0-1.67-2.32,8.43,8.43,0,0,0-6.19-3H21A3.26,3.26,0,0,0,18.7,2.47a2.78,2.78,0,0,0-5.4,0A3.26,3.26,0,0,0,11,4.11H10.9a8.43,8.43,0,0,0-6.19,3A12.78,12.78,0,0,0,3,9.38a17.66,17.66,0,0,0-1.26,2.78A22.47,22.47,0,0,0,1,14.94,27.94,27.94,0,0,0,.52,18C-.79,30.81,5,46.51,15.29,48.91c.16.24.52.72.71.72s.56-.49.71-.72C27,46.51,32.79,30.81,31.48,18ZM16,.86a2.2,2.2,0,0,1,2.22,1.56A2.74,2.74,0,0,0,16,3.81s0,.05,0,.05,0,0,0-.05a2.74,2.74,0,0,0-2.18-1.39A2.2,2.2,0,0,1,16,.86ZM15,3.28a2,2,0,0,1,.9,1.19c0,.15.09.23.15.23s.11-.09.15-.23A2,2,0,0,1,17,3.28a2.36,2.36,0,0,1,3.41.89,7.55,7.55,0,0,0-.94.24,3.73,3.73,0,0,0-1.34.75A5.31,5.31,0,0,0,16.46,8.6c-.38,4.13,4.36,3.48,4.6,3.46.61,0,1.07-1,1.07-2.24s-.47-2.24-1.07-2.24c-.37,0-1,.29-1.06,1.44,0,.8.35,1.87.86,1.94.26,0,.5-.43.58-.9s0-1.06-.34-1.15a.22.22,0,0,0-.26.16c0,.1.23.28.22.76,0,.71-.72.35-.63-.77s.59-.93.61-.93c.28,0,.71.59.71,1.7s-.48,2-1.39,1.49a3,3,0,0,1-.86-2.85c.1-.46.49-1.71,1.77-1.71A6.22,6.22,0,0,1,26.2,9.52c-.15.48-1.1,2.32-4.11,4.07l-.16.09a6.2,6.2,0,0,0-2.79-.55,15.28,15.28,0,0,0-2.62.42,2.31,2.31,0,0,1-.52.08,2.31,2.31,0,0,1-.52-.08,15.28,15.28,0,0,0-2.62-.42,6.2,6.2,0,0,0-2.79.55l-.16-.09C6.9,11.84,6,10,5.8,9.52a6.22,6.22,0,0,1,4.92-2.76C12,6.76,12.39,8,12.49,8.46a3,3,0,0,1-.86,2.85c-.91.55-1.39-.51-1.39-1.49s.43-1.7.71-1.7c0,0,.53-.06.61.93s-.61,1.47-.63.77c0-.47.24-.65.22-.76a.22.22,0,0,0-.26-.16c-.37.09-.4.74-.34,1.15s.32.94.58.9c.51-.07.9-1.14.86-1.94-.06-1.14-.69-1.44-1.06-1.44-.6,0-1.07,1-1.07,2.24s.46,2.24,1.07,2.24c.24,0,5,.67,4.6-3.46a5.31,5.31,0,0,0-1.72-3.44,3.73,3.73,0,0,0-1.34-.75,7.55,7.55,0,0,0-.94-.24A2.36,2.36,0,0,1,15,3.28Zm-4,17.42,2.5,10.69,2.18-14V17.3h.5v.05l3,14.21,2.51-10.88a.71.71,0,0,0-.12-.63A.66.66,0,0,0,21,19.9h-.1l-.21,0v-1h3.15V20l-.2,0h0a.55.55,0,0,0-.57.43l-4.09,18.5h-.55v-.05L15.8,25.66l-2,13.16v.05h-.62v0L8.86,20.38a.65.65,0,0,0-.53-.47l-.16,0v-1h3.52v1l-.21,0a.55.55,0,0,0-.41.12.72.72,0,0,0-.17.54A1.52,1.52,0,0,0,10.91,20.69ZM6,20.29a8.92,8.92,0,0,1-3.27-.94A18.58,18.58,0,0,1,5.58,9.82a9.83,9.83,0,0,0,4.17,4.05C7.44,15.26,6.39,18.14,6,20.29Zm0,.3a18.34,18.34,0,0,0-.18,1.87A25.07,25.07,0,0,0,7,31.06,27.93,27.93,0,0,0,9.3,36.32a6.48,6.48,0,0,1-2.9,1.32,37.63,37.63,0,0,1-3.65-18A9.11,9.11,0,0,0,6,20.58Zm3.46,16a18.28,18.28,0,0,0,4.77,5.72,6.51,6.51,0,0,1-2,2.46,18.19,18.19,0,0,1-5.69-6.85A6.67,6.67,0,0,0,9.46,36.59Zm5,5.9a6.88,6.88,0,0,0,1.51.83,6.88,6.88,0,0,0,1.51-.83,6.77,6.77,0,0,0,2,2.45,10.55,10.55,0,0,1-2,1v-.07c-.14-.74-1.12-.9-1.47-.9s-1.33.15-1.47.9V46a10.55,10.55,0,0,1-2-1A6.77,6.77,0,0,0,14.49,42.49Zm3.28-.18a18.28,18.28,0,0,0,4.77-5.72,6.67,6.67,0,0,0,2.91,1.33,18.19,18.19,0,0,1-5.69,6.85A6.51,6.51,0,0,1,17.77,42.31Zm4.92-6A27.93,27.93,0,0,0,25,31.06,24.89,24.89,0,0,0,26,26.92a25,25,0,0,0,.22-4.47A18.34,18.34,0,0,0,26,20.58a9.11,9.11,0,0,0,3.25-.91,37.63,37.63,0,0,1-3.65,18A6.48,6.48,0,0,1,22.7,36.32Zm3.26-16c-.35-2.14-1.41-5-3.71-6.41a9.83,9.83,0,0,0,4.17-4.05,18.58,18.58,0,0,1,2.81,9.53A8.92,8.92,0,0,1,26,20.29ZM14.32,48A13.15,13.15,0,0,1,11,46.35a15.52,15.52,0,0,1-1.83-1.48,17.56,17.56,0,0,1-1.33-1.39q-.43-.5-.82-1A26.81,26.81,0,0,1,3.87,37a36.07,36.07,0,0,1-1.93-5.76,39.77,39.77,0,0,1-1-6.12A36.45,36.45,0,0,1,.89,19c.09-1.09.22-2.18.42-3.26a22.2,22.2,0,0,1,.81-3.16A17.52,17.52,0,0,1,3.3,9.83a11.82,11.82,0,0,1,1.78-2.5A9.14,9.14,0,0,1,7.32,5.57a7.86,7.86,0,0,1,1.09-.49L9,4.9a5,5,0,0,1,.58-.15A7.91,7.91,0,0,1,11,4.63a4.28,4.28,0,0,1,2.19.59,4.51,4.51,0,0,1,1.88,3.41c.22,2.55-2.38,3-2.88,2.95-.08,0-.12-.07.13-.34a3.68,3.68,0,0,0,.59-2.88,2.38,2.38,0,0,0-2.27-2.08,6.3,6.3,0,0,0-4.58,2.2,12.86,12.86,0,0,0-2.52,4.44,24.1,24.1,0,0,0-1.24,6.42,35.24,35.24,0,0,0,.13,6,38.79,38.79,0,0,0,1.1,6,34.33,34.33,0,0,0,2,5.56A24.48,24.48,0,0,0,8.63,42a14.62,14.62,0,0,0,4.59,3.88,10.24,10.24,0,0,0,1.25.54,3.79,3.79,0,0,0,.38,1.75A3.74,3.74,0,0,1,14.32,48Zm1.86.87A.34.34,0,0,1,16,49a.34.34,0,0,1-.18-.12A3.66,3.66,0,0,1,15,46c.07-.36.68-.53,1-.53s1,.17,1,.53A3.66,3.66,0,0,1,16.18,48.88ZM31.07,25.11a39.77,39.77,0,0,1-1,6.12A36.07,36.07,0,0,1,28.13,37,26.81,26.81,0,0,1,25,42.46q-.4.52-.82,1a17.56,17.56,0,0,1-1.33,1.39A15.52,15.52,0,0,1,21,46.35,13.15,13.15,0,0,1,17.68,48a3.74,3.74,0,0,1-.53.16,3.79,3.79,0,0,0,.38-1.75,10.24,10.24,0,0,0,1.25-.54A14.62,14.62,0,0,0,23.37,42a24.48,24.48,0,0,0,3.09-5.09,34.33,34.33,0,0,0,2-5.56,38.79,38.79,0,0,0,1.1-6,35.24,35.24,0,0,0,.13-6,24.1,24.1,0,0,0-1.24-6.42,12.86,12.86,0,0,0-2.52-4.44,6.3,6.3,0,0,0-4.58-2.2,2.38,2.38,0,0,0-2.27,2.08,3.68,3.68,0,0,0,.59,2.88c.25.26.21.33.13.34-.51,0-3.11-.4-2.88-2.95a4.51,4.51,0,0,1,1.88-3.41A4.28,4.28,0,0,1,21,4.63a7.91,7.91,0,0,1,1.45.12A5,5,0,0,1,23,4.9l.58.18a7.86,7.86,0,0,1,1.09.49,9.14,9.14,0,0,1,2.24,1.75,11.82,11.82,0,0,1,1.78,2.5,17.52,17.52,0,0,1,1.19,2.75,22.2,22.2,0,0,1,.81,3.16c.2,1.08.33,2.17.42,3.26A36.45,36.45,0,0,1,31.07,25.11Z"/></svg>