<svg xmlns="http://www.w3.org/2000/svg" viewBox="0 0 226 110"><defs><style>.cls-1{fill:#c5050c;}.cls-2{fill:#fff;}</style></defs><g id="Layer_1" data-name="Layer 1"><path class="cls-1" d="M81.43,65.25l-2.23,6a6.06,6.06,0,0,0-.44,2c0,.75.37,1.19,1.41,1.75H73c1.82-1.15,2.34-1.89,3.64-5.27l6.91-17.23A5,5,0,0,0,84,50.69c0-.66-.29-1.07-1.18-1.52H89l8.25,20.54c1.22,3.08,2,4.23,3.79,5.27H92.9c1.19-.71,1.41-.93,1.41-1.56a6.24,6.24,0,0,0-.66-2.19l-2.31-6Zm4.94-12.77-4,10.25h8Z"/><path class="cls-1" d="M109.06,71.79a37,37,0,0,0,5.28.4,10.79,10.79,0,0,0,7.13-2.41L119.39,75h-16c1.45-.78,1.75-1.67,1.75-5V54.19c0-3.35-.3-4.24-1.75-5h7.43c-1.45.78-1.75,1.67-1.75,5Z"/><path class="cls-1" d="M141.63,72.27a9.59,9.59,0,0,1-7.76,3.34c-3.75,0-6.83-1.59-8.2-4.31-.75-1.41-.93-2.56-.93-5.71V54.19c0-3.35-.3-4.24-1.75-5h7.43c-1.41.78-1.75,1.67-1.75,5v11.4c0,2.63.3,3.75,1.38,5a6.42,6.42,0,0,0,5,2.15A6.94,6.94,0,0,0,140.67,70a4.59,4.59,0,0,0,.82-3.12V54.19c0-3.35-.34-4.24-1.75-5h7.43c-1.42.78-1.75,1.67-1.75,5V70c0,3.34.33,4.23,1.75,5h-5.54Z"/><path class="cls-1" d="M174.35,52c.75-1.81.75-1.81.75-2.82h6.79a2.38,2.38,0,0,0-1.22,2.45,8.62,8.62,0,0,0,.11,1.41l2.41,17.31c.3,2.71.63,3.45,2.08,4.64H177.7c1.18-.52,1.63-1.37,1.63-3a19.57,19.57,0,0,0-.19-2.19L177.06,53l-8.8,22.47A9,9,0,0,1,165,71.19L157.35,53,155,70.34c-.11.93-.18,1.71-.18,2a2.75,2.75,0,0,0,1.56,2.6H150c1.27-1.23,1.79-2.56,2.12-5.16l2.27-16.49a12.28,12.28,0,0,0,.22-2c0-.9-.34-1.42-1.38-2.16h6.87a2.86,2.86,0,0,0,.38,1.38L168,68.26Z"/><path class="cls-1" d="M192.89,70.37c0,2.57.45,3.57,2,4.61h-7c1.67-1.08,2.08-2,2.08-4.61V53.78c0-2.57-.44-3.57-2-4.61h5.72a5.21,5.21,0,0,0,.93,1.45l14.52,18.49V53.78c0-2.6-.45-3.53-2.08-4.61h7c-1.67,1.08-2.08,2-2.08,4.61V76.24a10.56,10.56,0,0,1-5.38-4.12L192.89,54.71Z"/><path class="cls-1" d="M218.93,54.19c0-3.35-.3-4.24-1.75-5h7.43c-1.45.78-1.75,1.67-1.75,5V70c0,3.34.3,4.23,1.75,5h-7.43c1.45-.78,1.75-1.67,1.75-5Z"/><path class="cls-1" d="M85,96.85H83a.8.8,0,0,1-.53-.17,1,1,0,0,1-.31-.41l-1.29-3.4H74.25L73,96.27a1.2,1.2,0,0,1-.3.4.82.82,0,0,1-.54.18H70.2l6.1-15.41h2.54Zm-4.74-5.78-2.12-5.63a13.71,13.71,0,0,1-.52-1.65c-.08.33-.17.64-.26.92s-.18.53-.26.75l-2.12,5.61Z"/><path class="cls-1" d="M96.49,84.08a1,1,0,0,1-.25.28.53.53,0,0,1-.32.09.87.87,0,0,1-.45-.17c-.17-.12-.38-.24-.62-.38a5.94,5.94,0,0,0-.87-.39,3.9,3.9,0,0,0-1.2-.17,3.5,3.5,0,0,0-1.13.16,2.1,2.1,0,0,0-.82.45,1.85,1.85,0,0,0-.5.68,2.15,2.15,0,0,0-.16.85,1.47,1.47,0,0,0,.31,1,2.39,2.39,0,0,0,.82.67,6,6,0,0,0,1.16.49l1.33.45a13.63,13.63,0,0,1,1.33.53,4.56,4.56,0,0,1,1.16.76,3.57,3.57,0,0,1,.82,1.12,3.9,3.9,0,0,1,.31,1.62A5.32,5.32,0,0,1,97.06,94a4.61,4.61,0,0,1-1,1.57,4.54,4.54,0,0,1-1.64,1,6,6,0,0,1-2.23.39,6.76,6.76,0,0,1-1.44-.15,6.77,6.77,0,0,1-2.53-1,6.78,6.78,0,0,1-1-.83l.73-1.2a.72.72,0,0,1,.25-.24.73.73,0,0,1,.33-.08.88.88,0,0,1,.54.23c.2.15.44.32.73.5a5.39,5.39,0,0,0,1,.5,3.83,3.83,0,0,0,1.43.23,3,3,0,0,0,2.1-.66,2.31,2.31,0,0,0,.75-1.83,1.75,1.75,0,0,0-.31-1.06,2.42,2.42,0,0,0-.82-.69,5.3,5.3,0,0,0-1.16-.47l-1.33-.42a11.36,11.36,0,0,1-1.33-.51A4.34,4.34,0,0,1,89,88.53a3.61,3.61,0,0,1-.82-1.18,4.43,4.43,0,0,1-.3-1.75A4.09,4.09,0,0,1,88.16,84a4.36,4.36,0,0,1,1-1.39,4.73,4.73,0,0,1,1.55-1,5.5,5.5,0,0,1,2.1-.37,6.81,6.81,0,0,1,2.43.42,5.51,5.51,0,0,1,1.91,1.19Z"/><path class="cls-1" d="M109.38,84.08a1,1,0,0,1-.25.28.53.53,0,0,1-.32.09.84.84,0,0,1-.45-.17c-.17-.12-.38-.24-.62-.38a5.63,5.63,0,0,0-.88-.39,3.79,3.79,0,0,0-1.19-.17,3.5,3.5,0,0,0-1.13.16,2.1,2.1,0,0,0-.82.45,1.85,1.85,0,0,0-.5.68,2.15,2.15,0,0,0-.16.85,1.47,1.47,0,0,0,.31,1,2.45,2.45,0,0,0,.81.67,6.33,6.33,0,0,0,1.17.49l1.33.45a13.63,13.63,0,0,1,1.33.53,4.56,4.56,0,0,1,1.16.76,3.57,3.57,0,0,1,.82,1.12,3.9,3.9,0,0,1,.31,1.62,5.12,5.12,0,0,1-.36,1.92,4.44,4.44,0,0,1-1,1.57,4.54,4.54,0,0,1-1.64,1,6,6,0,0,1-2.23.39,6.76,6.76,0,0,1-1.44-.15,6.77,6.77,0,0,1-2.53-1,6.3,6.3,0,0,1-1-.83l.73-1.2a.72.72,0,0,1,.25-.24.73.73,0,0,1,.33-.08.88.88,0,0,1,.54.23c.2.15.44.32.73.5a5.39,5.39,0,0,0,1,.5,3.83,3.83,0,0,0,1.43.23,3,3,0,0,0,2.1-.66,2.31,2.31,0,0,0,.75-1.83,1.75,1.75,0,0,0-.31-1.06,2.42,2.42,0,0,0-.82-.69,5.3,5.3,0,0,0-1.16-.47l-1.33-.42A11.36,11.36,0,0,1,103,89.3a4.34,4.34,0,0,1-1.16-.77,3.61,3.61,0,0,1-.82-1.18,4.42,4.42,0,0,1-.31-1.75,4.11,4.11,0,0,1,.33-1.61,4.36,4.36,0,0,1,1-1.39,4.73,4.73,0,0,1,1.55-1,5.5,5.5,0,0,1,2.1-.37,6.81,6.81,0,0,1,2.43.42A5.51,5.51,0,0,1,110,82.88Z"/><path class="cls-1" d="M128.73,89.15a8.69,8.69,0,0,1-.56,3.15,7.41,7.41,0,0,1-1.56,2.49,7.32,7.32,0,0,1-2.43,1.63A8.22,8.22,0,0,1,121,97a8.13,8.13,0,0,1-3.14-.59,7.26,7.26,0,0,1-2.44-1.63,7.43,7.43,0,0,1-1.57-2.49,9.32,9.32,0,0,1,0-6.31,7.43,7.43,0,0,1,1.57-2.49,7.14,7.14,0,0,1,2.44-1.64,8.13,8.13,0,0,1,3.14-.59,8.22,8.22,0,0,1,3.15.59,7.19,7.19,0,0,1,2.43,1.64A7.41,7.41,0,0,1,128.17,86,8.7,8.7,0,0,1,128.73,89.15Zm-2.56,0a7.41,7.41,0,0,0-.36-2.39,5.19,5.19,0,0,0-1-1.8,4.51,4.51,0,0,0-1.62-1.13,5.63,5.63,0,0,0-2.14-.4,5.54,5.54,0,0,0-2.13.4A4.47,4.47,0,0,0,117.27,85a5.23,5.23,0,0,0-1,1.8,8.11,8.11,0,0,0,0,4.78,5.09,5.09,0,0,0,1,1.79,4.47,4.47,0,0,0,1.63,1.13,5.54,5.54,0,0,0,2.13.39,5.63,5.63,0,0,0,2.14-.39,4.51,4.51,0,0,0,1.62-1.13,5.05,5.05,0,0,0,1-1.79A7.41,7.41,0,0,0,126.17,89.15Z"/><path class="cls-1" d="M143.51,93.41a.48.48,0,0,1,.35.16l1,1.09a6.42,6.42,0,0,1-2.31,1.74,8.65,8.65,0,0,1-6.33,0,6.76,6.76,0,0,1-2.33-1.63,7.29,7.29,0,0,1-1.48-2.49,9.45,9.45,0,0,1-.52-3.17,8.87,8.87,0,0,1,.56-3.19A7.23,7.23,0,0,1,134,83.47a7,7,0,0,1,2.39-1.62,8.08,8.08,0,0,1,3.08-.58,7.57,7.57,0,0,1,2.95.54,7.16,7.16,0,0,1,2.21,1.44l-.82,1.17a1,1,0,0,1-.2.2.53.53,0,0,1-.32.09.87.87,0,0,1-.49-.2,6.81,6.81,0,0,0-.7-.44,5.27,5.27,0,0,0-1-.44,5.55,5.55,0,0,0-1.59-.2,5.09,5.09,0,0,0-2,.39,4.38,4.38,0,0,0-1.59,1.12,5.27,5.27,0,0,0-1,1.8,7.18,7.18,0,0,0-.37,2.41,7,7,0,0,0,.39,2.42,5.31,5.31,0,0,0,1,1.8,4.53,4.53,0,0,0,1.59,1.11,4.9,4.9,0,0,0,2,.39,8.07,8.07,0,0,0,1.15-.07,4.37,4.37,0,0,0,.93-.23,3.79,3.79,0,0,0,.81-.39,5.31,5.31,0,0,0,.75-.57A.67.67,0,0,1,143.51,93.41Z"/><path class="cls-1" d="M150.72,96.85h-2.51V81.44h2.51Z"/><path class="cls-1" d="M168.62,96.85h-1.94a.8.8,0,0,1-.53-.17,1,1,0,0,1-.31-.41l-1.29-3.4h-6.63l-1.28,3.4a1.2,1.2,0,0,1-.3.4.82.82,0,0,1-.54.18h-1.93L160,81.44h2.54Zm-4.74-5.78-2.12-5.63a13.71,13.71,0,0,1-.52-1.65c-.08.33-.17.64-.26.92s-.18.53-.26.75l-2.12,5.61Z"/><path class="cls-1" d="M180.74,83.53h-4.81V96.85h-2.49V83.53h-4.81V81.44h12.11Z"/><path class="cls-1" d="M186.57,96.85h-2.52V81.44h2.52Z"/><path class="cls-1" d="M206,89.15a8.69,8.69,0,0,1-.55,3.15,7.59,7.59,0,0,1-1.57,2.49,7.32,7.32,0,0,1-2.43,1.63,8.22,8.22,0,0,1-3.15.59,8.13,8.13,0,0,1-3.14-.59,7.22,7.22,0,0,1-2.43-1.63,7.3,7.3,0,0,1-1.58-2.49,9.32,9.32,0,0,1,0-6.31,7.3,7.3,0,0,1,1.58-2.49,7.1,7.1,0,0,1,2.43-1.64,8.13,8.13,0,0,1,3.14-.59,8.22,8.22,0,0,1,3.15.59,7.19,7.19,0,0,1,2.43,1.64A7.59,7.59,0,0,1,205.45,86,8.7,8.7,0,0,1,206,89.15Zm-2.56,0a7.41,7.41,0,0,0-.35-2.39,5.05,5.05,0,0,0-1-1.8,4.51,4.51,0,0,0-1.62-1.13,5.9,5.9,0,0,0-4.27,0A4.43,4.43,0,0,0,194.55,85a5.07,5.07,0,0,0-1,1.8,7.9,7.9,0,0,0,0,4.78,4.94,4.94,0,0,0,1,1.79,4.43,4.43,0,0,0,1.62,1.13,6,6,0,0,0,4.27,0,4.51,4.51,0,0,0,1.62-1.13,4.92,4.92,0,0,0,1-1.79A7.41,7.41,0,0,0,203.44,89.15Z"/><path class="cls-1" d="M222.75,81.44V96.85h-1.27a1.19,1.19,0,0,1-.49-.1,1.11,1.11,0,0,1-.39-.34l-8.46-10.87c0,.21,0,.41.05.62s0,.39,0,.56V96.85H210V81.44h1.31l.27,0a.83.83,0,0,1,.21.06.68.68,0,0,1,.18.13,1.3,1.3,0,0,1,.18.21l8.47,10.88c0-.22,0-.44,0-.65s0-.42,0-.6v-10Z"/><path class="cls-1" d="M102.42,24.91,96.86,42.72H94.48L90.14,29.51a5.56,5.56,0,0,1-.26-1c-.09.38-.18.69-.26,1L85.23,42.72H82.86L77.3,24.91h2.21a.93.93,0,0,1,.58.17.76.76,0,0,1,.31.45l3.51,11.92a6.56,6.56,0,0,1,.18.76c0,.27.11.56.17.85.06-.29.12-.58.18-.85a6.35,6.35,0,0,1,.21-.76l4-11.92a.9.9,0,0,1,.32-.44.93.93,0,0,1,.58-.18h.75a.9.9,0,0,1,.57.17,1.06,1.06,0,0,1,.33.45l4,11.92a12,12,0,0,1,.4,1.55c.1-.57.21-1.09.32-1.55l3.53-11.92a.77.77,0,0,1,.31-.44,1,1,0,0,1,.58-.18Z"/><path class="cls-1" d="M108.42,42.72h-2.65V24.91h2.65Z"/><path class="cls-1" d="M122.9,27.81a1,1,0,0,1-.26.31.56.56,0,0,1-.35.1,1,1,0,0,1-.51-.2,8.11,8.11,0,0,0-.71-.46,5.38,5.38,0,0,0-1-.46,4.35,4.35,0,0,0-1.43-.21,4.07,4.07,0,0,0-1.37.21,2.81,2.81,0,0,0-1,.56,2.36,2.36,0,0,0-.6.83,2.52,2.52,0,0,0-.2,1,1.89,1.89,0,0,0,.36,1.19,3.18,3.18,0,0,0,1,.81,7.42,7.42,0,0,0,1.36.58l1.55.52c.53.18,1,.38,1.55.61a5.61,5.61,0,0,1,1.35.88,3.89,3.89,0,0,1,1,1.29,4.2,4.2,0,0,1,.37,1.86,6,6,0,0,1-.41,2.21,5.05,5.05,0,0,1-1.17,1.8,5.39,5.39,0,0,1-1.89,1.21,7,7,0,0,1-2.55.44,7.6,7.6,0,0,1-1.66-.17,8.26,8.26,0,0,1-1.53-.47,6.92,6.92,0,0,1-1.34-.73,7.06,7.06,0,0,1-1.13-1l.76-1.27a1.07,1.07,0,0,1,.27-.25.68.68,0,0,1,.35-.09,1,1,0,0,1,.6.27c.23.18.51.38.85.6a6.09,6.09,0,0,0,1.2.6,4.78,4.78,0,0,0,1.71.28,4.71,4.71,0,0,0,1.46-.22,3,3,0,0,0,1.08-.62,2.7,2.7,0,0,0,.68-1,3.22,3.22,0,0,0,.24-1.26,2.13,2.13,0,0,0-.36-1.28,2.89,2.89,0,0,0-1-.83,7.61,7.61,0,0,0-1.35-.57l-1.55-.49a16,16,0,0,1-1.55-.59,4.74,4.74,0,0,1-1.35-.87,4,4,0,0,1-1-1.36,4.93,4.93,0,0,1-.36-2,4.71,4.71,0,0,1,1.46-3.43,5.17,5.17,0,0,1,1.75-1.1,6.37,6.37,0,0,1,2.39-.42,7.69,7.69,0,0,1,2.76.48,6.44,6.44,0,0,1,2.19,1.37Z"/><path class="cls-1" d="M140.52,38.9a.53.53,0,0,1,.38.17l1,1.15a7.39,7.39,0,0,1-2.66,2,9,9,0,0,1-3.78.71,8.74,8.74,0,0,1-3.5-.67,7.75,7.75,0,0,1-2.68-1.87,8.46,8.46,0,0,1-1.72-2.88,10.84,10.84,0,0,1-.61-3.68,10.43,10.43,0,0,1,.64-3.69,8.61,8.61,0,0,1,1.79-2.88,8.12,8.12,0,0,1,2.77-1.87,9.06,9.06,0,0,1,3.55-.67,8.69,8.69,0,0,1,3.37.62A8.34,8.34,0,0,1,141.68,27l-.87,1.23a.88.88,0,0,1-.21.22.61.61,0,0,1-.35.09,1,1,0,0,1-.55-.24,9,9,0,0,0-.83-.52,6.39,6.39,0,0,0-1.27-.53,6.3,6.3,0,0,0-1.89-.24,6.23,6.23,0,0,0-2.43.47,5.3,5.3,0,0,0-1.9,1.34,6.09,6.09,0,0,0-1.24,2.14,8.62,8.62,0,0,0-.44,2.88,8.39,8.39,0,0,0,.46,2.89,6.22,6.22,0,0,0,1.26,2.14,5.27,5.27,0,0,0,1.9,1.34,6,6,0,0,0,2.36.46,9.59,9.59,0,0,0,1.38-.09,6,6,0,0,0,1.13-.28,4.87,4.87,0,0,0,1-.48,6.33,6.33,0,0,0,.91-.7.6.6,0,0,1,.21-.14A.48.48,0,0,1,140.52,38.9Z"/><path class="cls-1" d="M161.7,33.82a10.05,10.05,0,0,1-.64,3.66,8.37,8.37,0,0,1-1.8,2.88,8.18,8.18,0,0,1-2.79,1.88,10.06,10.06,0,0,1-7.22,0,8.18,8.18,0,0,1-2.79-1.88,8.68,8.68,0,0,1-1.8-2.88,10.63,10.63,0,0,1,0-7.32,8.62,8.62,0,0,1,1.8-2.89,8.18,8.18,0,0,1,2.79-1.88,9.92,9.92,0,0,1,7.22,0,8.18,8.18,0,0,1,2.79,1.88,8.32,8.32,0,0,1,1.8,2.89A10.05,10.05,0,0,1,161.7,33.82Zm-2.7,0a8.81,8.81,0,0,0-.44-2.86,5.92,5.92,0,0,0-1.23-2.14,5.41,5.41,0,0,0-1.93-1.36,7.1,7.1,0,0,0-5.08,0,5.45,5.45,0,0,0-1.94,1.36A5.94,5.94,0,0,0,147.14,31a8.81,8.81,0,0,0-.43,2.86,8.71,8.71,0,0,0,.43,2.85,5.94,5.94,0,0,0,1.24,2.14,5.3,5.3,0,0,0,1.94,1.35,7.1,7.1,0,0,0,5.08,0,5.27,5.27,0,0,0,1.93-1.35,5.92,5.92,0,0,0,1.23-2.14A8.7,8.7,0,0,0,159,33.82Z"/><path class="cls-1" d="M180.57,24.91V42.72h-1.34a1,1,0,0,1-.51-.11,1.35,1.35,0,0,1-.42-.36l-10.06-13c0,.22,0,.44,0,.66s0,.41,0,.6V42.72H166V24.91h1.37a1.2,1.2,0,0,1,.52.08,1.11,1.11,0,0,1,.38.36l10.09,13c0-.24-.05-.47-.06-.7s0-.44,0-.64V24.91Z"/><path class="cls-1" d="M195.06,27.81a1,1,0,0,1-.26.31.56.56,0,0,1-.35.1,1,1,0,0,1-.51-.2,8.11,8.11,0,0,0-.71-.46,5.11,5.11,0,0,0-1-.46,4.31,4.31,0,0,0-1.43-.21,4.07,4.07,0,0,0-1.37.21,2.81,2.81,0,0,0-1,.56,2.36,2.36,0,0,0-.6.83,2.7,2.7,0,0,0-.2,1,1.89,1.89,0,0,0,.36,1.19,3.18,3.18,0,0,0,1,.81,7.42,7.42,0,0,0,1.36.58l1.55.52c.53.18,1,.38,1.55.61a5.61,5.61,0,0,1,1.35.88,3.89,3.89,0,0,1,1,1.29,4.2,4.2,0,0,1,.37,1.86,6,6,0,0,1-.41,2.21,4.92,4.92,0,0,1-1.17,1.8,5.39,5.39,0,0,1-1.89,1.21,7,7,0,0,1-2.55.44,7.6,7.6,0,0,1-1.66-.17,8.26,8.26,0,0,1-1.53-.47,6.92,6.92,0,0,1-1.34-.73,7.53,7.53,0,0,1-1.13-1l.76-1.27a1.07,1.07,0,0,1,.27-.25.68.68,0,0,1,.35-.09,1,1,0,0,1,.6.27c.23.18.51.38.85.6a6.09,6.09,0,0,0,1.2.6,4.78,4.78,0,0,0,1.71.28,4.71,4.71,0,0,0,1.46-.22,3.14,3.14,0,0,0,1.09-.62,2.8,2.8,0,0,0,.67-1,3.22,3.22,0,0,0,.24-1.26,2.13,2.13,0,0,0-.36-1.28,2.89,2.89,0,0,0-1-.83,7.61,7.61,0,0,0-1.35-.57l-1.55-.49a16,16,0,0,1-1.55-.59,4.74,4.74,0,0,1-1.35-.87,4,4,0,0,1-1-1.36,5.25,5.25,0,0,1,0-3.85,4.72,4.72,0,0,1,1.09-1.58,5.17,5.17,0,0,1,1.75-1.1,6.37,6.37,0,0,1,2.39-.42,7.69,7.69,0,0,1,2.76.48,6.35,6.35,0,0,1,2.19,1.37Z"/><path class="cls-1" d="M202.94,42.72h-2.66V24.91h2.66Z"/><path class="cls-1" d="M222.81,24.91V42.72h-1.34a1,1,0,0,1-.51-.11,1.35,1.35,0,0,1-.42-.36l-10.06-13c0,.22,0,.44,0,.66s0,.41,0,.6V42.72h-2.32V24.91h1.37a1.2,1.2,0,0,1,.52.08,1.11,1.11,0,0,1,.38.36l10.09,13c0-.24-.05-.47-.06-.7s0-.44,0-.64V24.91Z"/><path class="cls-2" d="M35.46,108.59a4.78,4.78,0,0,1-1.31-1.43l-.07-.12-.14,0C11.52,101.78-1,67.35,1.85,39.73a58.38,58.38,0,0,1,1.59-9,43.87,43.87,0,0,1,2.87-7.91,29.25,29.25,0,0,1,4.65-7A18.17,18.17,0,0,1,24.27,9.51c.12,0,.44,0,.47-.31a6.81,6.81,0,0,1,4.79-3.26l.24,0,.05-.23a5.82,5.82,0,0,1,11.28,0l.06.23.23,0a6.81,6.81,0,0,1,4.79,3.27c0,.31.35.31.46.32A18.18,18.18,0,0,1,60,15.85a29.92,29.92,0,0,1,5.25,8.31l.29.68a52.62,52.62,0,0,1,3.57,14.89C71.88,67.36,59.39,101.78,37,107l-.14,0-.08.12A4.66,4.66,0,0,1,35.46,108.59Z"/><path class="cls-1" d="M69.39,39.69a60.45,60.45,0,0,0-1.07-6.8,49.78,49.78,0,0,0-1.72-6.1,39.21,39.21,0,0,0-2.76-6.09,28.07,28.07,0,0,0-3.65-5.08A18.51,18.51,0,0,0,46.63,9.15h-.11a7.16,7.16,0,0,0-5.15-3.6,6.09,6.09,0,0,0-11.82,0,7.14,7.14,0,0,0-5.15,3.6h-.11a18.51,18.51,0,0,0-13.56,6.47A28.12,28.12,0,0,0,7.07,20.7a39.16,39.16,0,0,0-2.75,6.09,48.07,48.07,0,0,0-1.72,6.1,60.45,60.45,0,0,0-1.07,6.8c-2.85,28,9.73,62.38,32.36,67.66.35.52,1.14,1.59,1.57,1.59s1.22-1.07,1.56-1.59C59.66,102.07,72.24,67.68,69.39,39.69ZM35.46,2a4.85,4.85,0,0,1,4.86,3.41,6,6,0,0,0-4.78,3.06s0,.11-.08.11-.07-.09-.09-.11A6,6,0,0,0,30.6,5.43,4.83,4.83,0,0,1,35.46,2Zm-2.3,5.3a4.38,4.38,0,0,1,2,2.61c.08.32.2.51.33.51s.25-.19.33-.51a4.38,4.38,0,0,1,2-2.61,5.18,5.18,0,0,1,7.47,2,17.76,17.76,0,0,0-2.06.52,7.94,7.94,0,0,0-2.94,1.64A11.62,11.62,0,0,0,36.46,19C35.64,28,46,26.61,46.54,26.56c1.34,0,2.35-2.11,2.35-4.91s-1-4.91-2.35-4.91c-.81,0-2.2.64-2.33,3.15-.09,1.76.77,4.1,1.89,4.25.57.08,1.1-.95,1.27-2s.07-2.31-.74-2.51a.46.46,0,0,0-.57.34c-.06.23.5.62.48,1.66,0,1.55-1.59.78-1.38-1.68.19-2.18,1.3-2,1.35-2,.62,0,1.56,1.3,1.56,3.73,0,2.17-1,4.49-3,3.28-1.68-1.23-2.34-4.06-1.88-6.25.21-1,1.08-3.73,3.87-3.73,4,0,7.79,2.12,10.79,6.06-.33,1.06-2.41,5.07-9,8.92l-.36.19a13.69,13.69,0,0,0-6.11-1.21,33.68,33.68,0,0,0-5.73.91,5,5,0,0,1-1.14.19h0a4.94,4.94,0,0,1-1.14-.19,33.68,33.68,0,0,0-5.73-.91,13.69,13.69,0,0,0-6.11,1.21l-.36-.19c-6.6-3.85-8.68-7.86-9-8.92,3-3.94,6.75-6.06,10.79-6.06,2.79,0,3.65,2.73,3.87,3.73.46,2.19-.2,5-1.88,6.25-2,1.21-3-1.11-3-3.28,0-2.43.94-3.73,1.56-3.73.05,0,1.16-.13,1.35,2,.21,2.46-1.35,3.23-1.38,1.68,0-1,.54-1.43.48-1.66a.47.47,0,0,0-.58-.34c-.8.2-.88,1.61-.73,2.51s.69,2.06,1.27,2c1.11-.15,2-2.49,1.88-4.25-.13-2.51-1.52-3.15-2.32-3.15-1.31,0-2.35,2.11-2.35,4.91s1,4.91,2.35,4.91c.52.05,10.9,1.47,10.07-7.58a11.61,11.61,0,0,0-3.76-7.54A8.1,8.1,0,0,0,27.75,9.8a17.76,17.76,0,0,0-2.06-.52A5.18,5.18,0,0,1,33.16,7.32ZM13.54,45.26a39.8,39.8,0,0,0-.4,4.09,55.57,55.57,0,0,0,.48,9.81,55,55,0,0,0,2.05,9.06,61.2,61.2,0,0,0,5.12,11.53,14.17,14.17,0,0,1-6.37,2.89c-5.73-11.39-8.64-26.11-8-39.37A20,20,0,0,0,13.54,45.26ZM6.46,42.54c.54-9,2.84-16.15,6.17-20.88.59,1.54,3.18,5.38,9.14,8.89C16.7,33.6,14.41,39.9,13.64,44.6A19.42,19.42,0,0,1,6.46,42.54Zm14.67,37.8c3.8,6.56,7.57,10.47,10.45,12.54a14.25,14.25,0,0,1-4.38,5.39c-5-3.34-9.16-8.63-12.46-15A14.65,14.65,0,0,0,21.13,80.34Zm11,12.94a15.22,15.22,0,0,0,3.31,1.82,15.47,15.47,0,0,0,3.31-1.82,14.77,14.77,0,0,0,4.37,5.37,23.19,23.19,0,0,1-4.43,2.21c0-.06,0-.11,0-.17-.32-1.63-2.45-2-3.23-2s-2.91.34-3.23,2c0,.06,0,.11,0,.17a22.9,22.9,0,0,1-4.43-2.21A14.77,14.77,0,0,0,32.15,93.28Zm7.19-.4c2.88-2.07,6.65-6,10.45-12.54a14.65,14.65,0,0,0,6.39,2.92c-3.31,6.38-7.5,11.67-12.46,15A14.25,14.25,0,0,1,39.34,92.88ZM50.13,79.75a61.16,61.16,0,0,0,5.11-11.53,55,55,0,0,0,2.06-9.06,55.57,55.57,0,0,0,.48-9.81,39.8,39.8,0,0,0-.4-4.09,19.89,19.89,0,0,0,7.11-2c.65,13.26-2.27,28-8,39.37A14.14,14.14,0,0,1,50.13,79.75ZM57.28,44.6c-.77-4.7-3.1-10.88-8.14-14,6-3.51,8.56-7.35,9.15-8.89,3.33,4.73,5.63,11.83,6.16,20.88A19.29,19.29,0,0,1,57.28,44.6ZM31.77,105.37a28.86,28.86,0,0,1-7.26-3.63,35,35,0,0,1-4-3.24,41.92,41.92,0,0,1-2.91-3q-.93-1.1-1.8-2.25a58.93,58.93,0,0,1-6.89-12A79,79,0,0,1,4.65,68.6,87.15,87.15,0,0,1,2.44,55.18a79,79,0,0,1-.09-13.41c.2-2.39.49-4.78.92-7.14A50.25,50.25,0,0,1,5,27.7a39.19,39.19,0,0,1,2.6-6,25.91,25.91,0,0,1,3.9-5.49,19.82,19.82,0,0,1,4.9-3.84,17.67,17.67,0,0,1,2.39-1.08c.42-.15.84-.28,1.27-.4a11.4,11.4,0,0,1,1.28-.32,17.62,17.62,0,0,1,3.17-.26,9.38,9.38,0,0,1,4.8,1.3,9.9,9.9,0,0,1,4.13,7.48c.48,5.59-5.21,6.47-6.33,6.46-.17,0-.26-.16.3-.74a8.06,8.06,0,0,0,1.29-6.31c-.54-2.57-2.34-4.57-5-4.57a13.84,13.84,0,0,0-10,4.82A28.12,28.12,0,0,0,8.2,28.47,52.74,52.74,0,0,0,5.47,42.55a77.15,77.15,0,0,0,.29,13.16A84.48,84.48,0,0,0,8.17,68.82,75.41,75.41,0,0,0,12.53,81a53.49,53.49,0,0,0,6.78,11.16,32,32,0,0,0,10.06,8.5,21.27,21.27,0,0,0,2.73,1.19,8.42,8.42,0,0,0,.82,3.84A8.38,8.38,0,0,1,31.77,105.37Zm4.07,1.91a.68.68,0,0,1-.38.26.76.76,0,0,1-.39-.26,8.05,8.05,0,0,1-1.87-6.4c.16-.79,1.49-1.15,2.26-1.16s2.1.37,2.25,1.16A8,8,0,0,1,35.84,107.28Zm32.64-52.1A88.38,88.38,0,0,1,66.27,68.6,80,80,0,0,1,62,81.22a58.51,58.51,0,0,1-6.9,12q-.85,1.15-1.8,2.25a38,38,0,0,1-2.91,3,34,34,0,0,1-4,3.24,29,29,0,0,1-7.26,3.63,8.54,8.54,0,0,1-1.16.34,8.3,8.3,0,0,0,.83-3.84,21.9,21.9,0,0,0,2.73-1.19,32.14,32.14,0,0,0,10.06-8.5A53.49,53.49,0,0,0,58.39,81a75.41,75.41,0,0,0,4.36-12.2,84.48,84.48,0,0,0,2.41-13.11,77.15,77.15,0,0,0,.29-13.16,53.14,53.14,0,0,0-2.73-14.08,28.28,28.28,0,0,0-5.52-9.74,13.84,13.84,0,0,0-10-4.82c-2.63,0-4.44,2-5,4.57a8.06,8.06,0,0,0,1.3,6.31c.55.58.46.74.29.74-1.11,0-6.81-.87-6.32-6.46a9.9,9.9,0,0,1,4.13-7.48,9.38,9.38,0,0,1,4.8-1.3,17.77,17.77,0,0,1,3.17.26,12.41,12.41,0,0,1,1.27.32c.43.12.86.25,1.27.4a16.62,16.62,0,0,1,2.39,1.08,19.68,19.68,0,0,1,4.91,3.84,25.52,25.52,0,0,1,3.89,5.49,37.33,37.33,0,0,1,2.6,6,48.9,48.9,0,0,1,1.77,6.93,71.45,71.45,0,0,1,.91,7.14A80.07,80.07,0,0,1,68.48,55.18Z"/><path class="cls-1" d="M56.54,49.53c-.14-3.33-1.11-13.48-8-17.89a11.64,11.64,0,0,0-5.42-1.5c-3.39-.22-5.91,1.08-7.6,1.13h-.08c-1.7-.05-4.23-1.35-7.62-1.13a11.63,11.63,0,0,0-5.41,1.5c-6.9,4.41-7.88,14.56-8,17.89A53.92,53.92,0,0,0,18.75,73C23.53,83.55,29.3,91,35,93.52l.46.21.46-.21C41.61,91,47.39,83.55,52.16,73A53.61,53.61,0,0,0,56.54,49.53Z"/><path class="cls-2" d="M45.72,41.54v2.3l.47-.07h.21a1.44,1.44,0,0,1,1,.34,1.59,1.59,0,0,1,.26,1.38s-4.62,20-5.5,23.84c-1-4.82-6.51-31.15-6.51-31.15l0-.11H34.56l0,.12s-4,25.63-4.77,30.76c-1-4.44-5.47-23.44-5.47-23.44s0-.24,0-.34A1.59,1.59,0,0,1,24.66,44a1.2,1.2,0,0,1,.9-.27l.45.06V41.54H18.3v2.18l.34.05a1.42,1.42,0,0,1,1.17,1s9,38.78,9.41,40.43l0,.1h1.36l0-.11c0-.27,3.71-24.33,4.4-28.84l5.6,28.84,0,.11h1.21l9-40.55a1.23,1.23,0,0,1,1.26-.94h.09l.44,0V41.54Z"/></g></svg>